<svg xmlns="http://www.w3.org/2000/svg" viewBox="0 0 128 128">
  <path fill="url(#py_a)" d="M63.14 0c-28.53 0-26.75 12.37-26.75 12.37l.03 12.82h27.17v3.86H25.04S0 25.86 0 54.49c0 28.63 21.84 27.63 21.84 27.63h13.04v-18.4s-.7-21.84 21.49-21.84h35.81s20.44.35 20.44-19.74C112.62 2.1 91.67 0 63.14 0zm-14.7 8.52c2.61 0 4.73 2.12 4.73 4.73 0 2.61-2.12 4.73-4.73 4.73-2.61 0-4.73-2.12-4.73-4.73 0-2.61 2.12-4.73 4.73-4.73z"/>
  <path fill="url(#py_b)" d="M64.86 128c28.53 0 26.75-12.37 26.75-12.37l-.03-12.82H64.41v-3.86h38.55s25.04 3.19 25.04-25.44c0-28.63-21.84-27.63-21.84-27.63H93.12v18.4s.7 21.84-21.49 21.84H35.82s-20.44-.35-20.44 19.74C15.38 125.9 36.33 128 64.86 128zm14.7-8.52c-2.61 0-4.73-2.12-4.73-4.73 0-2.61 2.12-4.73 4.73-4.73 2.61 0 4.73 2.12 4.73 4.73 0 2.61-2.12 4.73-4.73 4.73z"/>
  <defs>
    <linearGradient id="py_a" x1="16.5" y1="1.7" x2="90" y2="75" gradientUnits="userSpaceOnUse">
      <stop stop-color="#387EB8"/>
      <stop offset="1" stop-color="#366994"/>
    </linearGradient>
    <linearGradient id="py_b" x1="40" y1="50" x2="115" y2="125" gradientUnits="userSpaceOnUse">
      <stop stop-color="#FFE052"/>
      <stop offset="1" stop-color="#FFC331"/>
    </linearGradient>
  </defs>
</svg>
