<svg xmlns="http://www.w3.org/2000/svg" viewBox="0 0 100 100" fill="none">
  <path d="M26 33c6.667-8 15.333-10.667 26-8 6.095 1.524 10.428 5.918 15.244 10.799C75.05 43.702 83.743 52.5 100 48c-6.667 8-15.333 10.667-26 8-6.095-1.524-10.428-5.918-15.244-10.799C50.95 37.298 42.257 28.5 26 33zm-26 25c6.667-8 15.333-10.667 26-8 6.095 1.524 10.428 5.918 15.244 10.799C49.05 68.702 57.743 77.5 74 73c-6.667 8-15.333 10.667-26 8-6.095-1.524-10.428-5.918-15.244-10.799C24.95 62.298 16.257 53.5 0 58z" fill="#06B6D4"/>
</svg>
