<svg xmlns="http://www.w3.org/2000/svg" viewBox="0 0 128 128">
  <rect width="128" height="128" rx="16" fill="#3178c6"/>
  <path fill="#fff" d="M110.15 88.08c-2-3.05-5.26-5.18-9.8-6.42-3.04-.84-6.3-1.46-9.78-1.85-2.02-.23-4.14-.52-6.36-.88-2.65-.4-4.8-.93-6.43-1.6-1.63-.68-2.73-1.58-3.3-2.7-.58-1.12-.87-2.52-.87-4.2 0-1.88.46-3.48 1.38-4.8 1-1.32 2.37-2.38 4.12-3.18 1.76-.8 3.8-1.38 6.13-1.74 2.33-.36 4.8-.54 7.4-.54 3.92 0 7.44.47 10.56 1.4 3.12.94 5.6 2.33 7.44 4.18 1.84 1.85 2.76 4.17 2.76 6.96h14.76c0-4.66-1.53-8.7-4.6-12.1-3.06-3.4-7.24-6.02-12.54-7.85-5.3-1.83-11.36-2.75-18.18-2.75-6.52 0-12.44.88-17.76 2.64-5.32 1.76-9.6 4.33-12.84 7.7-3.24 3.37-4.86 7.48-4.86 12.33 0 4.02 1.05 7.48 3.15 10.38 2.1 2.9 5.04 5.16 8.82 6.78 3.78 1.62 8.35 2.8 13.71 3.54 2.92.4 5.67.75 8.25 1.05 2.58.3 4.87.68 6.87 1.14 2 .46 3.56 1.13 4.68 2.01 1.12.88 1.68 2.17 1.68 3.87 0 1.94-.58 3.6-1.74 4.98-1.16 1.38-2.78 2.44-4.86 3.18-2.08.74-4.52 1.25-7.32 1.53-2.8.28-5.78.42-8.94.42-4.52 0-8.68-.62-12.48-1.86-3.8-1.24-6.9-3.08-9.3-5.52-2.4-2.44-3.6-5.54-3.6-9.3H32.4c.08 5.6 1.88 10.3 5.4 14.1 3.52 3.8 8.24 6.64 14.16 8.52 5.92 1.88 12.64 2.82 20.16 2.82 7.04 0 13.36-.88 18.96-2.64 5.6-1.76 10.08-4.32 13.44-7.68 3.36-3.36 5.04-7.48 5.04-12.36 0-4.04-1.1-7.5-3.3-10.38zM44.4 51.96H28.92v63.12H13.68V51.96H.24V38.76h44.16v13.2z"/>
</svg>
